<svg width="218" height="62" viewBox="0 0 218 62" fill="none" xmlns="http://www.w3.org/2000/svg">
<path d="M18.3291 55H3.79203V30.1797H18.1709V33.2559H7.23734V40.6211H17.5557V43.6973H7.23734V51.8535H18.3291V55ZM22.7473 38.8457C23.2161 38.5293 23.72 38.2422 24.2591 37.9844C24.8098 37.7266 25.3723 37.5039 25.9466 37.3164C26.5325 37.1172 27.1184 36.9648 27.7044 36.8594C28.2903 36.7539 28.8587 36.7012 29.4095 36.7012C30.2532 36.7012 31.0501 36.8125 31.8001 37.0352C32.5618 37.2461 33.2239 37.5859 33.7864 38.0547C34.3606 38.5117 34.8118 39.1035 35.1399 39.8301C35.468 40.5566 35.6321 41.4355 35.6321 42.4668V49.709C35.6321 50.5059 35.6497 51.2266 35.6848 51.8711C35.72 52.5156 35.7669 53.0723 35.8255 53.541C35.8841 54.0918 35.9544 54.5781 36.0364 55H33.0657C33.0305 54.8008 32.9954 54.4316 32.9602 53.8926C32.9368 53.3535 32.9134 52.75 32.8899 52.082C32.5032 52.7383 32.0813 53.2773 31.6243 53.6992C31.1673 54.1094 30.6927 54.4375 30.2005 54.6836C29.7083 54.9297 29.2044 55.0996 28.6887 55.1934C28.1731 55.2871 27.6634 55.334 27.1595 55.334C26.2805 55.334 25.4837 55.2168 24.7688 54.9824C24.054 54.7363 23.4446 54.3848 22.9407 53.9277C22.4485 53.4707 22.0677 52.9199 21.7981 52.2754C21.5286 51.6309 21.3938 50.9043 21.3938 50.0957C21.3938 49.709 21.4348 49.2988 21.5169 48.8652C21.6106 48.4316 21.7571 48.0039 21.9563 47.582C22.1555 47.1602 22.4192 46.7559 22.7473 46.3691C23.0755 45.9824 23.4798 45.6367 23.9602 45.332C24.4759 45.0039 25.0442 44.752 25.6653 44.5762C26.2864 44.3887 26.9251 44.2539 27.5813 44.1719C28.2493 44.0781 28.9173 44.0254 29.5852 44.0137C30.2532 43.9902 30.8977 43.9785 31.5188 43.9785H32.468V42.6777C32.468 42.0332 32.386 41.4941 32.222 41.0605C32.0579 40.6152 31.8294 40.2637 31.5364 40.0059C31.2434 39.7363 30.9036 39.543 30.5169 39.4258C30.1302 39.3086 29.72 39.25 29.2864 39.25C28.8059 39.25 28.3079 39.3086 27.7923 39.4258C27.2766 39.5312 26.7727 39.6719 26.2805 39.8477C25.7884 40.0234 25.3196 40.2168 24.8743 40.4277C24.4407 40.6387 24.054 40.8496 23.7141 41.0605L22.7473 38.8457ZM31.3958 51.3086C31.6184 51.0508 31.7942 50.7637 31.9231 50.4473C32.0637 50.1309 32.1692 49.7734 32.2395 49.375C32.3216 48.9766 32.3743 48.5312 32.3977 48.0391C32.4329 47.5469 32.4505 46.9902 32.4505 46.3691H31.9407C31.1321 46.3691 30.2942 46.3984 29.427 46.457C28.5716 46.5156 27.7805 46.668 27.054 46.9141C26.3391 47.1602 25.7473 47.541 25.2786 48.0566C24.8216 48.5605 24.593 49.2578 24.593 50.1484C24.593 50.4766 24.6458 50.7988 24.7512 51.1152C24.8567 51.4199 25.0208 51.6953 25.2434 51.9414C25.4778 52.1875 25.7649 52.3867 26.1048 52.5391C26.4563 52.6914 26.8782 52.7676 27.3704 52.7676C28.2141 52.7676 28.9934 52.6445 29.7083 52.3984C30.4231 52.1523 30.9856 51.7891 31.3958 51.3086ZM40.5601 51.1152C40.9116 51.3848 41.2984 51.625 41.7202 51.8359C42.1421 52.0352 42.5816 52.2051 43.0386 52.3457C43.4956 52.4863 43.9585 52.5918 44.4273 52.6621C44.9077 52.7324 45.3706 52.7676 45.8159 52.7676C46.2964 52.7676 46.7534 52.7148 47.187 52.6094C47.6206 52.5039 47.9956 52.3398 48.312 52.1172C48.6402 51.8945 48.898 51.6191 49.0855 51.291C49.2847 50.9512 49.3843 50.5586 49.3843 50.1133C49.3843 49.7969 49.3257 49.5156 49.2085 49.2695C49.0913 49.0117 48.8862 48.7656 48.5933 48.5312C48.312 48.2969 47.9195 48.0684 47.4155 47.8457C46.9234 47.6113 46.3023 47.3535 45.5523 47.0723C44.7202 46.7676 43.9585 46.4629 43.2671 46.1582C42.5874 45.8535 42.0015 45.5078 41.5093 45.1211C41.0288 44.7227 40.6538 44.2539 40.3843 43.7148C40.1148 43.1641 39.98 42.4961 39.98 41.7109C39.98 40.8672 40.1558 40.1289 40.5073 39.4961C40.8589 38.8633 41.3277 38.3418 41.9136 37.9316C42.5112 37.5215 43.1968 37.2168 43.9702 37.0176C44.7437 36.8066 45.5464 36.7012 46.3784 36.7012C47.4331 36.7012 48.4878 36.8594 49.5425 37.1758C50.6089 37.4922 51.5816 37.9668 52.4605 38.5996L51.3882 40.8496C51.0015 40.6035 50.5972 40.3867 50.1753 40.1992C49.7534 40 49.3257 39.8359 48.8921 39.707C48.4585 39.5664 48.0308 39.4609 47.6089 39.3906C47.1987 39.3086 46.812 39.2676 46.4487 39.2676C45.9917 39.2676 45.5581 39.3145 45.148 39.4082C44.7495 39.502 44.398 39.6426 44.0933 39.8301C43.8003 40.0059 43.5659 40.2344 43.3902 40.5156C43.2144 40.7852 43.1265 41.0957 43.1265 41.4473C43.1265 41.7754 43.2085 42.0742 43.3726 42.3438C43.5366 42.6133 43.771 42.8652 44.0757 43.0996C44.3921 43.3223 44.773 43.5391 45.2183 43.75C45.6753 43.9609 46.1909 44.166 46.7652 44.3652C47.8316 44.752 48.7398 45.1328 49.4898 45.5078C50.2398 45.8828 50.8491 46.2812 51.3179 46.7031C51.7866 47.125 52.1265 47.5938 52.3374 48.1094C52.5484 48.6133 52.6538 49.1992 52.6538 49.8672C52.6538 50.8047 52.4487 51.6191 52.0386 52.3105C51.6402 53.002 51.1128 53.5703 50.4566 54.0156C49.8003 54.4609 49.0503 54.7891 48.2066 55C47.3628 55.2227 46.4956 55.334 45.605 55.334C44.48 55.334 43.4195 55.1875 42.4234 54.8945C41.439 54.5898 40.4722 54.1211 39.523 53.4883L40.5601 51.1152ZM64.1209 56.5469C63.9099 57.0977 63.6638 57.6777 63.3826 58.2871C63.1013 58.8965 62.7673 59.4531 62.3806 59.957C61.9939 60.4727 61.5486 60.8945 61.0447 61.2227C60.5408 61.5625 59.9607 61.7324 59.3045 61.7324C59.0701 61.7324 58.8181 61.709 58.5486 61.6621C58.2791 61.6152 57.9627 61.5391 57.5994 61.4336V58.9902C57.8689 59.084 58.0974 59.1484 58.2849 59.1836C58.4724 59.2188 58.6306 59.2363 58.7595 59.2363C59.1111 59.2363 59.4099 59.1309 59.656 58.9199C59.9021 58.709 60.1189 58.4277 60.3064 58.0762C60.4939 57.7246 60.658 57.3262 60.7986 56.8809C60.9509 56.4355 61.0916 55.9844 61.2205 55.5273L61.3962 54.9121L54.2947 37H57.9158L61.0095 45.5078L63.1189 51.5547L65.2459 45.5078L68.2693 37H71.8201L64.1209 56.5469ZM75.1836 55V30.1797H78.6465V51.8359H89.2637V55H75.1836ZM105.688 53.541C105.313 53.7637 104.914 53.9863 104.492 54.209C104.082 54.4199 103.619 54.6074 103.104 54.7715C102.588 54.9355 102.008 55.0703 101.364 55.1758C100.731 55.2812 100.01 55.334 99.2014 55.334C97.9709 55.334 96.8577 55.1289 95.8616 54.7188C94.8772 54.3086 94.0334 53.7109 93.3303 52.9258C92.6389 52.1289 92.1057 51.1562 91.7307 50.0078C91.3557 48.8477 91.1682 47.5234 91.1682 46.0352C91.1682 44.793 91.3205 43.6094 91.6252 42.4844C91.9299 41.3594 92.3928 40.3691 93.0139 39.5137C93.6467 38.6582 94.4495 37.9785 95.4221 37.4746C96.3948 36.959 97.5491 36.7012 98.885 36.7012C100.151 36.7012 101.24 36.9238 102.155 37.3691C103.069 37.8145 103.819 38.418 104.405 39.1797C105.002 39.9297 105.442 40.8145 105.723 41.834C106.004 42.8418 106.145 43.9141 106.145 45.0508V46.5098H94.4377C94.4495 47.3184 94.5373 48.1035 94.7014 48.8652C94.8772 49.6152 95.1526 50.2832 95.5276 50.8691C95.9026 51.4434 96.3948 51.9062 97.0041 52.2578C97.6135 52.5977 98.3694 52.7676 99.2717 52.7676C100.35 52.7676 101.323 52.6328 102.19 52.3633C103.069 52.0938 103.901 51.7129 104.686 51.2207L105.688 53.541ZM98.8147 39.2676C98.2522 39.2676 97.7248 39.3555 97.2327 39.5312C96.7522 39.6953 96.3245 39.959 95.9495 40.3223C95.5862 40.6738 95.2815 41.125 95.0354 41.6758C94.801 42.2148 94.6428 42.8594 94.5608 43.6094C94.5491 43.668 94.5432 43.75 94.5432 43.8555C94.5432 43.9609 94.5432 44.0723 94.5432 44.1895H102.699C102.676 43.5449 102.6 42.9238 102.471 42.3262C102.342 41.7285 102.131 41.207 101.838 40.7617C101.545 40.3047 101.153 39.9414 100.66 39.6719C100.168 39.4023 99.553 39.2676 98.8147 39.2676ZM110.247 38.8457C110.715 38.5293 111.219 38.2422 111.758 37.9844C112.309 37.7266 112.872 37.5039 113.446 37.3164C114.032 37.1172 114.618 36.9648 115.204 36.8594C115.79 36.7539 116.358 36.7012 116.909 36.7012C117.752 36.7012 118.549 36.8125 119.299 37.0352C120.061 37.2461 120.723 37.5859 121.286 38.0547C121.86 38.5117 122.311 39.1035 122.639 39.8301C122.967 40.5566 123.131 41.4355 123.131 42.4668V49.709C123.131 50.5059 123.149 51.2266 123.184 51.8711C123.219 52.5156 123.266 53.0723 123.325 53.541C123.383 54.0918 123.454 54.5781 123.536 55H120.565C120.53 54.8008 120.495 54.4316 120.459 53.8926C120.436 53.3535 120.413 52.75 120.389 52.082C120.002 52.7383 119.581 53.2773 119.124 53.6992C118.666 54.1094 118.192 54.4375 117.7 54.6836C117.207 54.9297 116.704 55.0996 116.188 55.1934C115.672 55.2871 115.163 55.334 114.659 55.334C113.78 55.334 112.983 55.2168 112.268 54.9824C111.553 54.7363 110.944 54.3848 110.44 53.9277C109.948 53.4707 109.567 52.9199 109.297 52.2754C109.028 51.6309 108.893 50.9043 108.893 50.0957C108.893 49.709 108.934 49.2988 109.016 48.8652C109.11 48.4316 109.256 48.0039 109.456 47.582C109.655 47.1602 109.918 46.7559 110.247 46.3691C110.575 45.9824 110.979 45.6367 111.459 45.332C111.975 45.0039 112.543 44.752 113.165 44.5762C113.786 44.3887 114.424 44.2539 115.081 44.1719C115.749 44.0781 116.416 44.0254 117.084 44.0137C117.752 43.9902 118.397 43.9785 119.018 43.9785H119.967V42.6777C119.967 42.0332 119.885 41.4941 119.721 41.0605C119.557 40.6152 119.329 40.2637 119.036 40.0059C118.743 39.7363 118.403 39.543 118.016 39.4258C117.629 39.3086 117.219 39.25 116.786 39.25C116.305 39.25 115.807 39.3086 115.291 39.4258C114.776 39.5312 114.272 39.6719 113.78 39.8477C113.288 40.0234 112.819 40.2168 112.374 40.4277C111.94 40.6387 111.553 40.8496 111.213 41.0605L110.247 38.8457ZM118.895 51.3086C119.118 51.0508 119.293 50.7637 119.422 50.4473C119.563 50.1309 119.668 49.7734 119.739 49.375C119.821 48.9766 119.874 48.5312 119.897 48.0391C119.932 47.5469 119.95 46.9902 119.95 46.3691H119.44C118.631 46.3691 117.793 46.3984 116.926 46.457C116.071 46.5156 115.28 46.668 114.553 46.9141C113.838 47.1602 113.247 47.541 112.778 48.0566C112.321 48.5605 112.092 49.2578 112.092 50.1484C112.092 50.4766 112.145 50.7988 112.25 51.1152C112.356 51.4199 112.52 51.6953 112.743 51.9414C112.977 52.1875 113.264 52.3867 113.604 52.5391C113.956 52.6914 114.377 52.7676 114.87 52.7676C115.713 52.7676 116.493 52.6445 117.207 52.3984C117.922 52.1523 118.485 51.7891 118.895 51.3086ZM128.376 41.623C128.376 41.4707 128.37 41.2012 128.358 40.8145C128.358 40.4277 128.352 40.0059 128.341 39.5488C128.341 39.0918 128.329 38.6172 128.305 38.125C128.294 37.6211 128.282 37.2402 128.27 36.9824H131.346L131.505 40.1113C131.891 39.4902 132.313 38.9629 132.77 38.5293C133.227 38.0957 133.684 37.7441 134.141 37.4746C134.61 37.2051 135.067 37.0117 135.512 36.8945C135.958 36.7656 136.368 36.7012 136.743 36.7012C136.977 36.7012 137.229 36.7129 137.499 36.7363C137.78 36.748 138.044 36.7715 138.29 36.8066L138.079 40.041C137.762 39.9824 137.464 39.9355 137.182 39.9004C136.901 39.8652 136.614 39.8477 136.321 39.8477C135.501 39.8477 134.798 39.9883 134.212 40.2695C133.626 40.5391 133.145 40.9199 132.77 41.4121C132.407 41.9043 132.137 42.4902 131.962 43.1699C131.786 43.8496 131.698 44.5996 131.698 45.4199V55H128.376V41.623ZM153.677 55V43.3984C153.677 42.0742 153.349 41.0547 152.692 40.3398C152.048 39.625 151.134 39.2676 149.95 39.2676C148.532 39.2676 147.419 39.7598 146.61 40.7441C145.813 41.7168 145.415 43.1406 145.415 45.0156V55H142.093V39.6191H139.421V37H145.169L145.345 39.6367C145.696 39.1562 146.054 38.7344 146.417 38.3711C146.78 37.9961 147.179 37.6855 147.612 37.4395C148.046 37.1934 148.52 37.0059 149.036 36.877C149.552 36.748 150.126 36.6836 150.759 36.6836C151.403 36.6836 152.083 36.7832 152.798 36.9824C153.524 37.1699 154.192 37.5098 154.802 38.002C155.423 38.4824 155.933 39.1328 156.331 39.9531C156.741 40.7734 156.946 41.8164 156.946 43.082V55H153.677Z" fill="white"/>
<path d="M215.5 7.625V57.1875H189.25C187.179 57.1875 185.5 54.6272 185.5 51.4688C185.5 48.3103 187.179 45.75 189.25 45.75H213V0H188C185.25 0 183 3.43125 183 7.625V53.375C183 57.5688 185.25 61 188 61H218V7.625H215.5Z" fill="white"/>
</svg>
